<mxfile host="app.diagrams.net" modified="2022-06-09T06:10:37.879Z" agent="5.0 (Windows NT 10.0; Win64; x64) AppleWebKit/537.36 (KHTML, like Gecko) Chrome/101.0.4951.54 Safari/537.36" etag="5to5grnROuAbzAyGc_iy" version="18.0.2" type="github">
  <diagram id="D4ulN_NYA70THIKxF5Tm" name="Page-1">
    <mxGraphModel dx="2249" dy="1963" grid="1" gridSize="10" guides="1" tooltips="1" connect="1" arrows="1" fold="1" page="1" pageScale="1" pageWidth="827" pageHeight="1169" math="0" shadow="0">
      <root>
        <mxCell id="0" />
        <mxCell id="1" parent="0" />
        <mxCell id="JzqUl4RdUkzFkftv-TBu-1" value="CAX研发中心冲突处理策略" style="rounded=0;whiteSpace=wrap;html=1;fillColor=#d5e8d4;strokeColor=#82B366;strokeWidth=2;sketch=0;glass=0;shadow=0;spacing=6;fontStyle=1" vertex="1" parent="1">
          <mxGeometry x="-10" y="250" width="90" height="60" as="geometry" />
        </mxCell>
        <mxCell id="JzqUl4RdUkzFkftv-TBu-2" value="文本冲突" style="rounded=0;whiteSpace=wrap;html=1;fillColor=#d5e8d4;strokeColor=#82B366;strokeWidth=2;sketch=0;glass=0;shadow=0;spacing=6;fontStyle=1" vertex="1" parent="1">
          <mxGeometry x="170" y="170" width="90" height="60" as="geometry" />
        </mxCell>
        <mxCell id="JzqUl4RdUkzFkftv-TBu-3" value="逻辑冲突" style="rounded=0;whiteSpace=wrap;html=1;fillColor=#d5e8d4;strokeColor=#82B366;strokeWidth=2;sketch=0;glass=0;shadow=0;spacing=6;fontStyle=1" vertex="1" parent="1">
          <mxGeometry x="170" y="1140" width="90" height="60" as="geometry" />
        </mxCell>
        <mxCell id="JzqUl4RdUkzFkftv-TBu-4" value="" style="endArrow=classic;html=1;rounded=0;exitX=1;exitY=0.5;exitDx=0;exitDy=0;entryX=0;entryY=0.5;entryDx=0;entryDy=0;strokeWidth=2;" edge="1" parent="1" source="JzqUl4RdUkzFkftv-TBu-1" target="JzqUl4RdUkzFkftv-TBu-2">
          <mxGeometry width="50" height="50" relative="1" as="geometry">
            <mxPoint x="80" y="310" as="sourcePoint" />
            <mxPoint x="130" y="260" as="targetPoint" />
            <Array as="points">
              <mxPoint x="120" y="280" />
              <mxPoint x="120" y="200" />
            </Array>
          </mxGeometry>
        </mxCell>
        <mxCell id="JzqUl4RdUkzFkftv-TBu-5" value="" style="endArrow=classic;html=1;rounded=0;entryX=0;entryY=0.5;entryDx=0;entryDy=0;strokeWidth=2;" edge="1" parent="1" target="JzqUl4RdUkzFkftv-TBu-3">
          <mxGeometry width="50" height="50" relative="1" as="geometry">
            <mxPoint x="120" y="280" as="sourcePoint" />
            <mxPoint x="180" y="210" as="targetPoint" />
            <Array as="points">
              <mxPoint x="120" y="480" />
              <mxPoint x="120" y="700" />
              <mxPoint x="120" y="1040" />
              <mxPoint x="120" y="1170" />
            </Array>
          </mxGeometry>
        </mxCell>
        <mxCell id="JzqUl4RdUkzFkftv-TBu-12" value="" style="endArrow=none;html=1;rounded=0;strokeWidth=2;" edge="1" parent="1" source="JzqUl4RdUkzFkftv-TBu-2">
          <mxGeometry width="50" height="50" relative="1" as="geometry">
            <mxPoint x="260" y="250" as="sourcePoint" />
            <mxPoint x="300" y="200" as="targetPoint" />
          </mxGeometry>
        </mxCell>
        <mxCell id="JzqUl4RdUkzFkftv-TBu-69" value="" style="edgeStyle=orthogonalEdgeStyle;rounded=0;orthogonalLoop=1;jettySize=auto;html=1;strokeWidth=2;" edge="1" parent="1" source="JzqUl4RdUkzFkftv-TBu-65" target="JzqUl4RdUkzFkftv-TBu-68">
          <mxGeometry relative="1" as="geometry" />
        </mxCell>
        <mxCell id="JzqUl4RdUkzFkftv-TBu-65" value="编译" style="rounded=0;whiteSpace=wrap;html=1;fillColor=#d5e8d4;strokeColor=#82B366;strokeWidth=2;sketch=0;glass=0;shadow=0;spacing=6;fontStyle=1" vertex="1" parent="1">
          <mxGeometry x="310" y="960" width="80" height="50" as="geometry" />
        </mxCell>
        <mxCell id="JzqUl4RdUkzFkftv-TBu-71" value="" style="edgeStyle=orthogonalEdgeStyle;rounded=0;orthogonalLoop=1;jettySize=auto;html=1;strokeWidth=2;" edge="1" parent="1" source="JzqUl4RdUkzFkftv-TBu-66" target="JzqUl4RdUkzFkftv-TBu-70">
          <mxGeometry relative="1" as="geometry" />
        </mxCell>
        <mxCell id="JzqUl4RdUkzFkftv-TBu-66" value="QTS自动化测试" style="rounded=0;whiteSpace=wrap;html=1;fillColor=#d5e8d4;strokeColor=#82B366;strokeWidth=2;sketch=0;glass=0;shadow=0;spacing=6;fontStyle=1" vertex="1" parent="1">
          <mxGeometry x="310" y="1050" width="80" height="50" as="geometry" />
        </mxCell>
        <mxCell id="JzqUl4RdUkzFkftv-TBu-73" value="" style="edgeStyle=orthogonalEdgeStyle;rounded=0;orthogonalLoop=1;jettySize=auto;html=1;strokeWidth=2;" edge="1" parent="1" source="JzqUl4RdUkzFkftv-TBu-67" target="JzqUl4RdUkzFkftv-TBu-72">
          <mxGeometry relative="1" as="geometry" />
        </mxCell>
        <mxCell id="JzqUl4RdUkzFkftv-TBu-67" value="手工测试" style="rounded=0;whiteSpace=wrap;html=1;fillColor=#d5e8d4;strokeColor=#82B366;strokeWidth=2;sketch=0;glass=0;shadow=0;spacing=6;fontStyle=1" vertex="1" parent="1">
          <mxGeometry x="310" y="1145" width="80" height="50" as="geometry" />
        </mxCell>
        <mxCell id="JzqUl4RdUkzFkftv-TBu-68" value="通过" style="rounded=0;whiteSpace=wrap;html=1;fillColor=#d5e8d4;strokeColor=#82B366;strokeWidth=2;sketch=0;glass=0;shadow=0;spacing=6;fontStyle=1" vertex="1" parent="1">
          <mxGeometry x="450" y="960" width="80" height="50" as="geometry" />
        </mxCell>
        <mxCell id="JzqUl4RdUkzFkftv-TBu-70" value="通过" style="rounded=0;whiteSpace=wrap;html=1;fillColor=#d5e8d4;strokeColor=#82B366;strokeWidth=2;sketch=0;glass=0;shadow=0;spacing=6;fontStyle=1" vertex="1" parent="1">
          <mxGeometry x="450" y="1050" width="80" height="50" as="geometry" />
        </mxCell>
        <mxCell id="JzqUl4RdUkzFkftv-TBu-72" value="通过" style="rounded=0;whiteSpace=wrap;html=1;fillColor=#d5e8d4;strokeColor=#82B366;strokeWidth=2;sketch=0;glass=0;shadow=0;spacing=6;fontStyle=1" vertex="1" parent="1">
          <mxGeometry x="450" y="1145" width="80" height="50" as="geometry" />
        </mxCell>
        <mxCell id="JzqUl4RdUkzFkftv-TBu-74" value="内存" style="rounded=0;whiteSpace=wrap;html=1;fillColor=#d5e8d4;strokeColor=#82B366;strokeWidth=2;sketch=0;glass=0;shadow=0;spacing=6;fontStyle=1" vertex="1" parent="1">
          <mxGeometry x="310" y="1300" width="80" height="50" as="geometry" />
        </mxCell>
        <mxCell id="JzqUl4RdUkzFkftv-TBu-75" value="UndoRedo" style="rounded=0;whiteSpace=wrap;html=1;fillColor=#d5e8d4;strokeColor=#82B366;strokeWidth=2;sketch=0;glass=0;shadow=0;spacing=6;fontStyle=1" vertex="1" parent="1">
          <mxGeometry x="310" y="1530" width="80" height="50" as="geometry" />
        </mxCell>
        <mxCell id="JzqUl4RdUkzFkftv-TBu-76" value="内存泄漏" style="rounded=0;whiteSpace=wrap;html=1;fillColor=#d5e8d4;strokeColor=#82B366;strokeWidth=2;sketch=0;glass=0;shadow=0;spacing=6;fontStyle=1" vertex="1" parent="1">
          <mxGeometry x="450" y="1300" width="80" height="50" as="geometry" />
        </mxCell>
        <mxCell id="JzqUl4RdUkzFkftv-TBu-78" value="内存破坏" style="rounded=0;whiteSpace=wrap;html=1;fillColor=#d5e8d4;strokeColor=#82B366;strokeWidth=2;sketch=0;glass=0;shadow=0;spacing=6;fontStyle=1" vertex="1" parent="1">
          <mxGeometry x="450" y="1380" width="80" height="50" as="geometry" />
        </mxCell>
        <mxCell id="JzqUl4RdUkzFkftv-TBu-79" value="ASAN" style="rounded=0;whiteSpace=wrap;html=1;fillColor=#d5e8d4;strokeColor=#82B366;strokeWidth=2;sketch=0;glass=0;shadow=0;spacing=6;fontStyle=1" vertex="1" parent="1">
          <mxGeometry x="450" y="1460" width="80" height="50" as="geometry" />
        </mxCell>
        <mxCell id="JzqUl4RdUkzFkftv-TBu-82" value="" style="endArrow=classic;html=1;rounded=0;strokeWidth=2;entryX=0;entryY=0.5;entryDx=0;entryDy=0;" edge="1" parent="1" target="JzqUl4RdUkzFkftv-TBu-78">
          <mxGeometry width="50" height="50" relative="1" as="geometry">
            <mxPoint x="410" y="1325" as="sourcePoint" />
            <mxPoint x="450" y="1370" as="targetPoint" />
            <Array as="points">
              <mxPoint x="410" y="1405" />
            </Array>
          </mxGeometry>
        </mxCell>
        <mxCell id="JzqUl4RdUkzFkftv-TBu-83" value="" style="endArrow=classic;html=1;rounded=0;strokeWidth=2;entryX=0;entryY=0.5;entryDx=0;entryDy=0;" edge="1" parent="1" target="JzqUl4RdUkzFkftv-TBu-79">
          <mxGeometry width="50" height="50" relative="1" as="geometry">
            <mxPoint x="410" y="1400" as="sourcePoint" />
            <mxPoint x="410" y="1430" as="targetPoint" />
            <Array as="points">
              <mxPoint x="410" y="1485" />
            </Array>
          </mxGeometry>
        </mxCell>
        <mxCell id="JzqUl4RdUkzFkftv-TBu-84" value="" style="endArrow=classic;html=1;rounded=0;strokeWidth=2;entryX=0;entryY=0.5;entryDx=0;entryDy=0;" edge="1" parent="1" target="JzqUl4RdUkzFkftv-TBu-76">
          <mxGeometry width="50" height="50" relative="1" as="geometry">
            <mxPoint x="390" y="1325" as="sourcePoint" />
            <mxPoint x="460" y="1270" as="targetPoint" />
          </mxGeometry>
        </mxCell>
        <mxCell id="JzqUl4RdUkzFkftv-TBu-85" value="" style="endArrow=classic;html=1;rounded=0;strokeWidth=2;exitX=1;exitY=0.5;exitDx=0;exitDy=0;entryX=0;entryY=0.5;entryDx=0;entryDy=0;" edge="1" parent="1" source="JzqUl4RdUkzFkftv-TBu-3" target="JzqUl4RdUkzFkftv-TBu-65">
          <mxGeometry width="50" height="50" relative="1" as="geometry">
            <mxPoint x="250" y="1290" as="sourcePoint" />
            <mxPoint x="300" y="1240" as="targetPoint" />
            <Array as="points">
              <mxPoint x="280" y="1170" />
              <mxPoint x="280" y="985" />
            </Array>
          </mxGeometry>
        </mxCell>
        <mxCell id="JzqUl4RdUkzFkftv-TBu-86" value="" style="endArrow=classic;html=1;rounded=0;strokeWidth=2;entryX=0;entryY=0.5;entryDx=0;entryDy=0;" edge="1" parent="1" target="JzqUl4RdUkzFkftv-TBu-67">
          <mxGeometry width="50" height="50" relative="1" as="geometry">
            <mxPoint x="280" y="1170" as="sourcePoint" />
            <mxPoint x="310" y="1220" as="targetPoint" />
          </mxGeometry>
        </mxCell>
        <mxCell id="JzqUl4RdUkzFkftv-TBu-87" value="" style="endArrow=classic;html=1;rounded=0;strokeWidth=2;entryX=0;entryY=0.5;entryDx=0;entryDy=0;" edge="1" parent="1" target="JzqUl4RdUkzFkftv-TBu-66">
          <mxGeometry width="50" height="50" relative="1" as="geometry">
            <mxPoint x="280" y="1075" as="sourcePoint" />
            <mxPoint x="270" y="1050" as="targetPoint" />
          </mxGeometry>
        </mxCell>
        <mxCell id="JzqUl4RdUkzFkftv-TBu-88" value="" style="endArrow=classic;html=1;rounded=0;strokeWidth=2;entryX=0;entryY=0.5;entryDx=0;entryDy=0;" edge="1" parent="1" target="JzqUl4RdUkzFkftv-TBu-74">
          <mxGeometry width="50" height="50" relative="1" as="geometry">
            <mxPoint x="280" y="1170" as="sourcePoint" />
            <mxPoint x="270" y="1260" as="targetPoint" />
            <Array as="points">
              <mxPoint x="280" y="1325" />
            </Array>
          </mxGeometry>
        </mxCell>
        <mxCell id="JzqUl4RdUkzFkftv-TBu-89" value="" style="endArrow=classic;html=1;rounded=0;strokeWidth=2;entryX=0;entryY=0.5;entryDx=0;entryDy=0;" edge="1" parent="1" target="JzqUl4RdUkzFkftv-TBu-75">
          <mxGeometry width="50" height="50" relative="1" as="geometry">
            <mxPoint x="280" y="1320" as="sourcePoint" />
            <mxPoint x="240" y="1430" as="targetPoint" />
            <Array as="points">
              <mxPoint x="280" y="1555" />
            </Array>
          </mxGeometry>
        </mxCell>
        <mxCell id="JzqUl4RdUkzFkftv-TBu-90" value="" style="shape=curlyBracket;whiteSpace=wrap;html=1;rounded=1;flipH=1;shadow=0;glass=0;sketch=0;strokeColor=#FF0000;strokeWidth=2;fillColor=#FF0000;fontColor=#ffffff;size=0.5;" vertex="1" parent="1">
          <mxGeometry x="550" y="980" width="20" height="200" as="geometry" />
        </mxCell>
        <mxCell id="JzqUl4RdUkzFkftv-TBu-91" value="可继续集成流程" style="rounded=0;whiteSpace=wrap;html=1;fillColor=#d5e8d4;strokeColor=#82B366;strokeWidth=2;sketch=0;glass=0;shadow=0;spacing=6;fontStyle=1" vertex="1" parent="1">
          <mxGeometry x="586" y="1052.5" width="120" height="55" as="geometry" />
        </mxCell>
        <mxCell id="JzqUl4RdUkzFkftv-TBu-93" value="&lt;b&gt;&lt;font color=&quot;#ff0000&quot;&gt;任意项未通过按照原流程反馈&lt;/font&gt;&lt;/b&gt;" style="whiteSpace=wrap;html=1;rounded=1;arcSize=50;align=center;verticalAlign=middle;strokeWidth=1;autosize=1;spacing=8;treeFolding=1;treeMoving=1;newEdgeStyle={&quot;edgeStyle&quot;:&quot;entityRelationEdgeStyle&quot;,&quot;startArrow&quot;:&quot;none&quot;,&quot;endArrow&quot;:&quot;none&quot;,&quot;segment&quot;:10,&quot;curved&quot;:1};shadow=0;glass=0;sketch=0;fillColor=#dae8fc;strokeColor=#6c8ebf;" vertex="1" parent="1">
          <mxGeometry x="614" y="902" width="200" height="40" as="geometry" />
        </mxCell>
        <mxCell id="JzqUl4RdUkzFkftv-TBu-94" value="" style="edgeStyle=entityRelationEdgeStyle;startArrow=none;endArrow=none;segment=10;curved=1;rounded=0;strokeWidth=2;exitX=0.25;exitY=0.2;exitDx=0;exitDy=0;exitPerimeter=0;" edge="1" target="JzqUl4RdUkzFkftv-TBu-93" parent="1" source="JzqUl4RdUkzFkftv-TBu-90">
          <mxGeometry relative="1" as="geometry">
            <mxPoint x="800" y="1020" as="sourcePoint" />
          </mxGeometry>
        </mxCell>
        <mxCell id="JzqUl4RdUkzFkftv-TBu-95" value="" style="shape=curlyBracket;whiteSpace=wrap;html=1;rounded=1;flipH=1;shadow=0;glass=0;sketch=0;strokeColor=#FF0000;strokeWidth=2;fillColor=#FF0000;fontColor=#ffffff;size=0.5;" vertex="1" parent="1">
          <mxGeometry x="550" y="1330" width="20" height="230" as="geometry" />
        </mxCell>
        <mxCell id="JzqUl4RdUkzFkftv-TBu-96" value="集成后修复" style="rounded=0;whiteSpace=wrap;html=1;fillColor=#d5e8d4;strokeColor=#82B366;strokeWidth=2;sketch=0;glass=0;shadow=0;spacing=6;fontStyle=1" vertex="1" parent="1">
          <mxGeometry x="586" y="1417.5" width="120" height="55" as="geometry" />
        </mxCell>
        <mxCell id="JzqUl4RdUkzFkftv-TBu-105" value="" style="rounded=0;whiteSpace=wrap;html=1;fontSize=13;fontColor=#FF0000;strokeColor=#FF0000;dashed=1;strokeWidth=2;" vertex="1" parent="1">
          <mxGeometry x="316" y="-40" width="314" height="400" as="geometry" />
        </mxCell>
        <mxCell id="JzqUl4RdUkzFkftv-TBu-106" value="" style="edgeStyle=orthogonalEdgeStyle;rounded=0;orthogonalLoop=1;jettySize=auto;html=1;strokeWidth=2;" edge="1" parent="1" source="JzqUl4RdUkzFkftv-TBu-107" target="JzqUl4RdUkzFkftv-TBu-111">
          <mxGeometry relative="1" as="geometry" />
        </mxCell>
        <mxCell id="JzqUl4RdUkzFkftv-TBu-107" value="分支间检测&lt;br&gt;（相同版本内与不同版本间）" style="rounded=0;whiteSpace=wrap;html=1;fillColor=#d5e8d4;strokeColor=#82B366;strokeWidth=2;sketch=0;glass=0;shadow=0;spacing=6;fontStyle=1" vertex="1" parent="1">
          <mxGeometry x="484" y="10" width="132" height="60" as="geometry" />
        </mxCell>
        <mxCell id="JzqUl4RdUkzFkftv-TBu-108" value="" style="edgeStyle=orthogonalEdgeStyle;rounded=0;orthogonalLoop=1;jettySize=auto;html=1;strokeWidth=2;" edge="1" parent="1" source="JzqUl4RdUkzFkftv-TBu-109" target="JzqUl4RdUkzFkftv-TBu-119">
          <mxGeometry relative="1" as="geometry" />
        </mxCell>
        <mxCell id="JzqUl4RdUkzFkftv-TBu-109" value="低版本分支与高版本主干的检测" style="rounded=0;whiteSpace=wrap;html=1;fillColor=#d5e8d4;strokeColor=#82B366;strokeWidth=2;sketch=0;glass=0;shadow=0;spacing=6;fontStyle=1" vertex="1" parent="1">
          <mxGeometry x="330" y="240" width="106" height="60" as="geometry" />
        </mxCell>
        <mxCell id="JzqUl4RdUkzFkftv-TBu-110" value="" style="edgeStyle=orthogonalEdgeStyle;rounded=0;orthogonalLoop=1;jettySize=auto;html=1;strokeWidth=2;" edge="1" parent="1" source="JzqUl4RdUkzFkftv-TBu-111" target="JzqUl4RdUkzFkftv-TBu-112">
          <mxGeometry relative="1" as="geometry" />
        </mxCell>
        <mxCell id="JzqUl4RdUkzFkftv-TBu-111" value="检测分支间是否存在冲突" style="rounded=0;whiteSpace=wrap;html=1;fillColor=#d5e8d4;strokeColor=#82B366;strokeWidth=2;sketch=0;glass=0;shadow=0;spacing=6;fontStyle=1" vertex="1" parent="1">
          <mxGeometry x="808" y="10" width="90" height="60" as="geometry" />
        </mxCell>
        <mxCell id="JzqUl4RdUkzFkftv-TBu-112" value="&lt;font color=&quot;#ff0000&quot;&gt;存在项目冲突&lt;/font&gt;" style="rounded=0;whiteSpace=wrap;html=1;fillColor=#d5e8d4;strokeColor=#82B366;strokeWidth=2;sketch=0;glass=0;shadow=0;spacing=6;fontStyle=1" vertex="1" parent="1">
          <mxGeometry x="978" y="10" width="98" height="60" as="geometry" />
        </mxCell>
        <mxCell id="JzqUl4RdUkzFkftv-TBu-113" value="" style="edgeStyle=orthogonalEdgeStyle;rounded=0;orthogonalLoop=1;jettySize=auto;html=1;strokeWidth=2;entryX=0;entryY=0.5;entryDx=0;entryDy=0;" edge="1" parent="1" source="JzqUl4RdUkzFkftv-TBu-114">
          <mxGeometry relative="1" as="geometry">
            <mxPoint x="1160" y="120" as="targetPoint" />
          </mxGeometry>
        </mxCell>
        <mxCell id="JzqUl4RdUkzFkftv-TBu-114" value="&lt;font color=&quot;#ff0000&quot;&gt;不存在项目冲突&lt;/font&gt;" style="rounded=0;whiteSpace=wrap;html=1;fillColor=#d5e8d4;strokeColor=#82B366;strokeWidth=2;sketch=0;glass=0;shadow=0;spacing=6;fontStyle=1" vertex="1" parent="1">
          <mxGeometry x="978" y="90" width="98" height="60" as="geometry" />
        </mxCell>
        <mxCell id="JzqUl4RdUkzFkftv-TBu-115" value="" style="endArrow=classic;html=1;rounded=0;strokeWidth=2;entryX=0;entryY=0.5;entryDx=0;entryDy=0;" edge="1" parent="1" target="JzqUl4RdUkzFkftv-TBu-114">
          <mxGeometry width="50" height="50" relative="1" as="geometry">
            <mxPoint x="928" y="40" as="sourcePoint" />
            <mxPoint x="978" y="-10" as="targetPoint" />
            <Array as="points">
              <mxPoint x="928" y="120" />
            </Array>
          </mxGeometry>
        </mxCell>
        <mxCell id="JzqUl4RdUkzFkftv-TBu-116" value="" style="endArrow=classic;html=1;rounded=0;strokeWidth=2;entryX=0;entryY=0.5;entryDx=0;entryDy=0;" edge="1" parent="1" target="JzqUl4RdUkzFkftv-TBu-107">
          <mxGeometry width="50" height="50" relative="1" as="geometry">
            <mxPoint x="300" y="200" as="sourcePoint" />
            <mxPoint x="320" y="70" as="targetPoint" />
            <Array as="points">
              <mxPoint x="300" y="40" />
            </Array>
          </mxGeometry>
        </mxCell>
        <mxCell id="JzqUl4RdUkzFkftv-TBu-117" value="" style="endArrow=classic;html=1;rounded=0;strokeWidth=2;entryX=0;entryY=0.5;entryDx=0;entryDy=0;" edge="1" parent="1" target="JzqUl4RdUkzFkftv-TBu-109">
          <mxGeometry width="50" height="50" relative="1" as="geometry">
            <mxPoint x="300" y="200" as="sourcePoint" />
            <mxPoint x="280" y="340" as="targetPoint" />
            <Array as="points">
              <mxPoint x="300" y="270" />
            </Array>
          </mxGeometry>
        </mxCell>
        <mxCell id="JzqUl4RdUkzFkftv-TBu-118" value="" style="edgeStyle=orthogonalEdgeStyle;rounded=0;orthogonalLoop=1;jettySize=auto;html=1;strokeWidth=2;startArrow=none;" edge="1" parent="1" source="JzqUl4RdUkzFkftv-TBu-122" target="JzqUl4RdUkzFkftv-TBu-120">
          <mxGeometry relative="1" as="geometry" />
        </mxCell>
        <mxCell id="JzqUl4RdUkzFkftv-TBu-119" value="检测低版本分支与高版本主干是否存在冲突" style="rounded=0;whiteSpace=wrap;html=1;fillColor=#d5e8d4;strokeColor=#82B366;strokeWidth=2;sketch=0;glass=0;shadow=0;spacing=7;fontStyle=1" vertex="1" parent="1">
          <mxGeometry x="492" y="240" width="124" height="60" as="geometry" />
        </mxCell>
        <mxCell id="JzqUl4RdUkzFkftv-TBu-120" value="检测是否提交伴随分支" style="rounded=0;whiteSpace=wrap;html=1;fillColor=#d5e8d4;strokeColor=#82B366;strokeWidth=2;sketch=0;glass=0;shadow=0;spacing=7;fontStyle=1" vertex="1" parent="1">
          <mxGeometry x="792" y="300" width="100" height="60" as="geometry" />
        </mxCell>
        <mxCell id="JzqUl4RdUkzFkftv-TBu-121" value="&lt;font color=&quot;#ff0000&quot;&gt;不存在主干冲突&lt;/font&gt;" style="rounded=0;whiteSpace=wrap;html=1;fillColor=#d5e8d4;strokeColor=#82B366;strokeWidth=2;sketch=0;glass=0;shadow=0;spacing=7;fontStyle=1" vertex="1" parent="1">
          <mxGeometry x="1120" y="160" width="100" height="60" as="geometry" />
        </mxCell>
        <mxCell id="JzqUl4RdUkzFkftv-TBu-122" value="存在冲突" style="rounded=0;whiteSpace=wrap;html=1;fillColor=#d5e8d4;strokeColor=#82B366;strokeWidth=2;sketch=0;glass=0;shadow=0;spacing=7;fontStyle=1" vertex="1" parent="1">
          <mxGeometry x="656" y="300" width="100" height="60" as="geometry" />
        </mxCell>
        <mxCell id="JzqUl4RdUkzFkftv-TBu-123" value="" style="edgeStyle=orthogonalEdgeStyle;rounded=0;orthogonalLoop=1;jettySize=auto;html=1;strokeWidth=2;endArrow=none;" edge="1" parent="1" source="JzqUl4RdUkzFkftv-TBu-119" target="JzqUl4RdUkzFkftv-TBu-122">
          <mxGeometry relative="1" as="geometry">
            <mxPoint x="616" y="270" as="sourcePoint" />
            <mxPoint x="786" y="270" as="targetPoint" />
          </mxGeometry>
        </mxCell>
        <mxCell id="JzqUl4RdUkzFkftv-TBu-124" value="" style="endArrow=classic;html=1;rounded=0;fontColor=#FF0000;strokeWidth=2;entryX=0;entryY=0.5;entryDx=0;entryDy=0;" edge="1" parent="1" target="JzqUl4RdUkzFkftv-TBu-121">
          <mxGeometry width="50" height="50" relative="1" as="geometry">
            <mxPoint x="636" y="270" as="sourcePoint" />
            <mxPoint x="596" y="170" as="targetPoint" />
            <Array as="points">
              <mxPoint x="636" y="190" />
            </Array>
          </mxGeometry>
        </mxCell>
        <mxCell id="JzqUl4RdUkzFkftv-TBu-125" value="提交伴随分支有效" style="rounded=0;whiteSpace=wrap;html=1;fillColor=#d5e8d4;strokeColor=#82B366;strokeWidth=2;sketch=0;glass=0;shadow=0;spacing=7;fontStyle=1" vertex="1" parent="1">
          <mxGeometry x="976" y="240" width="120" height="60" as="geometry" />
        </mxCell>
        <mxCell id="JzqUl4RdUkzFkftv-TBu-126" value="提交伴随分支无效" style="rounded=0;whiteSpace=wrap;html=1;fillColor=#d5e8d4;strokeColor=#82B366;strokeWidth=2;sketch=0;glass=0;shadow=0;spacing=7;fontStyle=1" vertex="1" parent="1">
          <mxGeometry x="976" y="370" width="120" height="60" as="geometry" />
        </mxCell>
        <mxCell id="JzqUl4RdUkzFkftv-TBu-127" value="" style="endArrow=classic;html=1;rounded=0;strokeWidth=2;exitX=1;exitY=0.5;exitDx=0;exitDy=0;entryX=0;entryY=0.5;entryDx=0;entryDy=0;" edge="1" parent="1" target="JzqUl4RdUkzFkftv-TBu-125">
          <mxGeometry width="50" height="50" relative="1" as="geometry">
            <mxPoint x="892" y="329.99999999999955" as="sourcePoint" />
            <mxPoint x="986" y="320" as="targetPoint" />
            <Array as="points">
              <mxPoint x="936" y="330" />
              <mxPoint x="936" y="270" />
            </Array>
          </mxGeometry>
        </mxCell>
        <mxCell id="JzqUl4RdUkzFkftv-TBu-128" value="" style="endArrow=classic;html=1;rounded=0;strokeWidth=2;entryX=0;entryY=0.5;entryDx=0;entryDy=0;" edge="1" parent="1" target="JzqUl4RdUkzFkftv-TBu-126">
          <mxGeometry width="50" height="50" relative="1" as="geometry">
            <mxPoint x="936" y="329.99999999999955" as="sourcePoint" />
            <mxPoint x="946" y="400" as="targetPoint" />
            <Array as="points">
              <mxPoint x="936" y="400" />
            </Array>
          </mxGeometry>
        </mxCell>
        <mxCell id="JzqUl4RdUkzFkftv-TBu-129" value="&lt;font color=&quot;#ff0000&quot;&gt;存在主干冲突&lt;/font&gt;" style="rounded=0;whiteSpace=wrap;html=1;fillColor=#d5e8d4;strokeColor=#82B366;strokeWidth=2;sketch=0;glass=0;shadow=0;spacing=7;fontStyle=1" vertex="1" parent="1">
          <mxGeometry x="1150" y="370" width="100" height="60" as="geometry" />
        </mxCell>
        <mxCell id="JzqUl4RdUkzFkftv-TBu-130" value="" style="endArrow=classic;html=1;rounded=0;strokeWidth=2;exitX=1;exitY=0.5;exitDx=0;exitDy=0;entryX=0;entryY=0.5;entryDx=0;entryDy=0;" edge="1" parent="1" target="JzqUl4RdUkzFkftv-TBu-129">
          <mxGeometry width="50" height="50" relative="1" as="geometry">
            <mxPoint x="1096" y="399.5" as="sourcePoint" />
            <mxPoint x="1160" y="399.5" as="targetPoint" />
          </mxGeometry>
        </mxCell>
        <mxCell id="JzqUl4RdUkzFkftv-TBu-131" value="&lt;font style=&quot;font-size: 15px;&quot;&gt;PASS&lt;br&gt;（满足集成冲突检测条件）&lt;br&gt;&lt;/font&gt;" style="rounded=0;whiteSpace=wrap;html=1;fillColor=#d5e8d4;strokeColor=#82B366;strokeWidth=2;sketch=0;glass=0;shadow=0;spacing=6;fontStyle=1" vertex="1" parent="1">
          <mxGeometry x="1350" y="90" width="130" height="60" as="geometry" />
        </mxCell>
        <mxCell id="JzqUl4RdUkzFkftv-TBu-132" value="" style="edgeStyle=orthogonalEdgeStyle;rounded=0;orthogonalLoop=1;jettySize=auto;html=1;strokeWidth=2;" edge="1" parent="1" target="JzqUl4RdUkzFkftv-TBu-131">
          <mxGeometry relative="1" as="geometry">
            <mxPoint x="1180" y="120" as="sourcePoint" />
          </mxGeometry>
        </mxCell>
        <mxCell id="JzqUl4RdUkzFkftv-TBu-134" value="" style="endArrow=classic;html=1;rounded=0;fontSize=15;fontColor=#FF0000;strokeWidth=2;exitX=1;exitY=0.5;exitDx=0;exitDy=0;entryX=0.5;entryY=1;entryDx=0;entryDy=0;" edge="1" parent="1" source="JzqUl4RdUkzFkftv-TBu-125" target="JzqUl4RdUkzFkftv-TBu-121">
          <mxGeometry width="50" height="50" relative="1" as="geometry">
            <mxPoint x="1140" y="310" as="sourcePoint" />
            <mxPoint x="1190" y="260" as="targetPoint" />
            <Array as="points">
              <mxPoint x="1170" y="270" />
            </Array>
          </mxGeometry>
        </mxCell>
        <mxCell id="JzqUl4RdUkzFkftv-TBu-135" value="" style="endArrow=classic;html=1;rounded=0;fontSize=15;fontColor=#FF0000;strokeWidth=2;exitX=0.5;exitY=0;exitDx=0;exitDy=0;entryX=0.5;entryY=1;entryDx=0;entryDy=0;" edge="1" parent="1" source="JzqUl4RdUkzFkftv-TBu-121">
          <mxGeometry width="50" height="50" relative="1" as="geometry">
            <mxPoint x="1240" y="210" as="sourcePoint" />
            <mxPoint x="1170" y="130" as="targetPoint" />
          </mxGeometry>
        </mxCell>
        <mxCell id="JzqUl4RdUkzFkftv-TBu-137" value="" style="endArrow=classic;html=1;rounded=0;fontSize=15;fontColor=#FF0000;strokeWidth=2;exitX=1;exitY=0.5;exitDx=0;exitDy=0;entryX=0;entryY=0.5;entryDx=0;entryDy=0;" edge="1" parent="1" source="JzqUl4RdUkzFkftv-TBu-112">
          <mxGeometry width="50" height="50" relative="1" as="geometry">
            <mxPoint x="1230" y="20" as="sourcePoint" />
            <mxPoint x="1510" y="40" as="targetPoint" />
          </mxGeometry>
        </mxCell>
        <mxCell id="JzqUl4RdUkzFkftv-TBu-138" value="&lt;font color=&quot;#000000&quot;&gt;&lt;b&gt;MCD&lt;/b&gt;&lt;/font&gt;" style="rounded=0;whiteSpace=wrap;html=1;dashed=1;fontSize=13;fontColor=#FF0000;strokeColor=#FFFFFF;strokeWidth=2;" vertex="1" parent="1">
          <mxGeometry x="420" y="-70" width="106" height="20" as="geometry" />
        </mxCell>
        <mxCell id="JzqUl4RdUkzFkftv-TBu-139" value="" style="endArrow=classic;html=1;rounded=0;fontSize=15;fontColor=#FF0000;strokeWidth=2;exitX=1;exitY=0.5;exitDx=0;exitDy=0;entryX=0.5;entryY=1;entryDx=0;entryDy=0;" edge="1" parent="1" source="JzqUl4RdUkzFkftv-TBu-129">
          <mxGeometry width="50" height="50" relative="1" as="geometry">
            <mxPoint x="1340" y="410" as="sourcePoint" />
            <mxPoint x="1520" y="50" as="targetPoint" />
            <Array as="points">
              <mxPoint x="1520" y="400" />
            </Array>
          </mxGeometry>
        </mxCell>
        <mxCell id="JzqUl4RdUkzFkftv-TBu-140" value="" style="endArrow=classic;html=1;rounded=0;fontSize=15;fontColor=#FF0000;strokeWidth=2;exitX=1;exitY=0.5;exitDx=0;exitDy=0;entryX=0;entryY=0.5;entryDx=0;entryDy=0;" edge="1" parent="1" target="JzqUl4RdUkzFkftv-TBu-141">
          <mxGeometry width="50" height="50" relative="1" as="geometry">
            <mxPoint x="1530" y="40" as="sourcePoint" />
            <mxPoint x="1600" y="-40" as="targetPoint" />
          </mxGeometry>
        </mxCell>
        <mxCell id="JzqUl4RdUkzFkftv-TBu-141" value="&lt;font style=&quot;font-size: 13px;&quot;&gt;存在冲突&lt;/font&gt;" style="rounded=0;whiteSpace=wrap;html=1;fillColor=#d5e8d4;strokeColor=#82B366;strokeWidth=2;sketch=0;glass=0;shadow=0;spacing=6;fontStyle=1" vertex="1" parent="1">
          <mxGeometry x="1600" y="10" width="90" height="60" as="geometry" />
        </mxCell>
        <mxCell id="JzqUl4RdUkzFkftv-TBu-142" value="" style="shape=sumEllipse;perimeter=ellipsePerimeter;whiteSpace=wrap;html=1;backgroundOutline=1;rounded=0;shadow=0;glass=0;sketch=0;fontColor=#FF0000;strokeColor=#000000;strokeWidth=1;fillColor=none;" vertex="1" parent="1">
          <mxGeometry x="1160" y="110" width="20" height="20" as="geometry" />
        </mxCell>
        <mxCell id="JzqUl4RdUkzFkftv-TBu-144" value="" style="shape=sumEllipse;perimeter=ellipsePerimeter;whiteSpace=wrap;html=1;backgroundOutline=1;rounded=0;shadow=0;glass=0;sketch=0;fontColor=#FF0000;strokeColor=#000000;strokeWidth=1;fillColor=none;" vertex="1" parent="1">
          <mxGeometry x="1510" y="30" width="20" height="20" as="geometry" />
        </mxCell>
        <mxCell id="JzqUl4RdUkzFkftv-TBu-145" value="&lt;font size=&quot;1&quot; color=&quot;#000000&quot;&gt;&lt;b style=&quot;font-size: 16px;&quot;&gt;＋&lt;/b&gt;&lt;/font&gt;" style="text;html=1;strokeColor=none;fillColor=none;align=center;verticalAlign=middle;whiteSpace=wrap;rounded=0;shadow=0;glass=0;sketch=0;fontColor=#FF0000;" vertex="1" parent="1">
          <mxGeometry x="1110" y="90" width="60" height="30" as="geometry" />
        </mxCell>
        <mxCell id="JzqUl4RdUkzFkftv-TBu-146" value="&lt;font size=&quot;1&quot; color=&quot;#000000&quot;&gt;&lt;b style=&quot;font-size: 16px;&quot;&gt;＋&lt;/b&gt;&lt;/font&gt;" style="text;html=1;strokeColor=none;fillColor=none;align=center;verticalAlign=middle;whiteSpace=wrap;rounded=0;shadow=0;glass=0;sketch=0;fontColor=#FF0000;" vertex="1" parent="1">
          <mxGeometry x="1150" y="130" width="60" height="30" as="geometry" />
        </mxCell>
        <mxCell id="JzqUl4RdUkzFkftv-TBu-147" value="&lt;font size=&quot;1&quot; color=&quot;#000000&quot;&gt;&lt;b style=&quot;font-size: 16px;&quot;&gt;＋&lt;/b&gt;&lt;/font&gt;" style="text;html=1;strokeColor=none;fillColor=none;align=center;verticalAlign=middle;whiteSpace=wrap;rounded=0;shadow=0;glass=0;sketch=0;fontColor=#FF0000;" vertex="1" parent="1">
          <mxGeometry x="1460" y="10" width="60" height="30" as="geometry" />
        </mxCell>
        <mxCell id="JzqUl4RdUkzFkftv-TBu-150" value="&lt;font size=&quot;1&quot; color=&quot;#000000&quot;&gt;&lt;b style=&quot;font-size: 16px;&quot;&gt;＋&lt;/b&gt;&lt;/font&gt;" style="text;html=1;strokeColor=none;fillColor=none;align=center;verticalAlign=middle;whiteSpace=wrap;rounded=0;shadow=0;glass=0;sketch=0;fontColor=#FF0000;" vertex="1" parent="1">
          <mxGeometry x="1480" y="60" width="60" height="30" as="geometry" />
        </mxCell>
      </root>
    </mxGraphModel>
  </diagram>
</mxfile>
